<?xml version="1.0" encoding="UTF-8" standalone="no"?>
<svg
   xmlns:dc="http://purl.org/dc/elements/1.1/"
   xmlns:cc="http://creativecommons.org/ns#"
   xmlns:rdf="http://www.w3.org/1999/02/22-rdf-syntax-ns#"
   xmlns:svg="http://www.w3.org/2000/svg"
   xmlns="http://www.w3.org/2000/svg"
   xmlns:sodipodi="http://sodipodi.sourceforge.net/DTD/sodipodi-0.dtd"
   xmlns:inkscape="http://www.inkscape.org/namespaces/inkscape"
   version="1.1"
   id="svg2"
   xml:space="preserve"
   width="682.66669"
   height="682.66669"
   viewBox="0 0 682.66669 682.66669"
   sodipodi:docname="amex.eps"><metadata
     id="metadata8"><rdf:RDF><cc:Work
         rdf:about=""><dc:format>image/svg+xml</dc:format><dc:type
           rdf:resource="http://purl.org/dc/dcmitype/StillImage" /></cc:Work></rdf:RDF></metadata><defs
     id="defs6"><clipPath
       clipPathUnits="userSpaceOnUse"
       id="clipPath20"><path
         d="m 5120,5120 h -26 V 1913 c 13,-17 21,-36 26,-61 V 5120 M 0,5120 v 0 V 0 h 5120 v 1753 c -5,-25 -13,-47 -26,-65 V 0 H 0 v 1280 2560 1280"
         id="path18" /></clipPath><radialGradient
       fx="0"
       fy="0"
       cx="0"
       cy="0"
       r="1"
       gradientUnits="userSpaceOnUse"
       gradientTransform="matrix(6068.24,0,0,6068.24,850.511,4230.51)"
       spreadMethod="pad"
       id="radialGradient26"><stop
         style="stop-opacity:1;stop-color:#ffffff"
         offset="0"
         id="stop22" /><stop
         style="stop-opacity:1;stop-color:#ffffff"
         offset="1"
         id="stop24" /></radialGradient><clipPath
       clipPathUnits="userSpaceOnUse"
       id="clipPath36"><path
         d="M 5094,5120 H 0 V 0 h 5094 v 1688 c 13,18 21,40 26,65 v 99 c -5,25 -13,44 -26,61 v 3207"
         id="path34" /></clipPath><radialGradient
       fx="0"
       fy="0"
       cx="0"
       cy="0"
       r="1"
       gradientUnits="userSpaceOnUse"
       gradientTransform="matrix(6068.24,0,0,6068.24,850.511,4230.51)"
       spreadMethod="pad"
       id="radialGradient42"><stop
         style="stop-opacity:1;stop-color:#90d4e9"
         offset="0"
         id="stop38" /><stop
         style="stop-opacity:1;stop-color:#3871b5"
         offset="1"
         id="stop40" /></radialGradient></defs><sodipodi:namedview
     pagecolor="#ffffff"
     bordercolor="#666666"
     borderopacity="1"
     objecttolerance="10"
     gridtolerance="10"
     guidetolerance="10"
     inkscape:pageopacity="0"
     inkscape:pageshadow="2"
     inkscape:window-width="640"
     inkscape:window-height="480"
     id="namedview4" /><g
     id="g10"
     inkscape:groupmode="layer"
     inkscape:label="ink_ext_XXXXXX"
     transform="matrix(1.3333333,0,0,-1.3333333,0,682.66667)"><g
       id="g12"
       transform="scale(0.1)"><g
         id="g14"><g
           id="g16"
           clip-path="url(#clipPath20)"><path
             d="m 5120,5120 h -26 V 1913 c 13,-17 21,-36 26,-61 V 5120 M 0,5120 v 0 V 0 h 5120 v 1753 c -5,-25 -13,-47 -26,-65 V 0 H 0 v 1280 2560 1280"
             style="fill:url(#radialGradient26);fill-opacity:1;fill-rule:nonzero;stroke:none"
             id="path28" /></g></g><g
         id="g30"><g
           id="g32"
           clip-path="url(#clipPath36)"><path
             d="M 5094,5120 H 0 V 0 h 5094 v 1688 c 13,18 21,40 26,65 v 99 c -5,25 -13,44 -26,61 v 3207"
             style="fill:url(#radialGradient42);fill-opacity:1;fill-rule:nonzero;stroke:none"
             id="path44" /></g></g><path
         d="m 0,2525 h 244 l 55,133 h 123.004 l 55,-133 h 480.992 v 102 L 1001,2525 h 249 l 43,103 v -103 h 1195 l -1,218 h 23 c 16,0 21,-2 21,-29 v -189 h 619 v 51 c 50,-27 128,-51 229,-51 h 260 l 56,133 h 123 l 55,-133 h 501 v 126 l 76,-126 h 400 v 835 h -397 v -99 l -55,99 h -408 v -99 l -51,99 h -551 c -92,0 -174,-13 -239,-49 v 49 h -380 v -49 c -42,37 -99,49 -162,49 H 1220 l -94,-216 -95,216 H 594 v -99 l -49,99 H 172.996 L 0,2963 Z m 4723,118 h -203 l -271,449 1,-449 h -291 l -56,133 h -297 l -53,-133 h -167 c -70,0 -158,16 -207,66 -51,51 -76,120 -76,229 0,89 16,170 77,234 46,48 119,70 217,70 h 138 v -128 h -135 c -52,0 -82,-8 -111,-36 -24,-25 -41,-73 -41,-136 0,-64 13,-110 40,-141 21,-23 62,-31 99,-31 h 64 l 201,470 h 214 l 242,-566 v 566 h 218 l 251,-417 v 417 h 146 z m -1838,0 h 146 v 598 h -146 z m -83,436 c 0,-95 -64,-145 -100,-159 31,-12 58,-33 70,-51 20,-29 24,-56 24,-109 v -118 h -144 v 75 c 0,36 3,87 -23,116 -21,21 -52,26 -104,26 h -155 v -217 h -143 v 598 h 329 c 73,0 127,-2 173,-29 46,-25 73,-65 73,-132 z m -674,-436 h -478 v 598 h 478 v -125 h -334 v -107 h 326 v -123 l -326,1 v -119 h 334 z m -584,0 h -147 l -1,468 -206,-468 H 1064 L 856,3112 V 2643 H 565 l -55,133 H 212.004 l -55,-133 H 2 l 255.996,598 H 470 l 242.996,-567 v 567 H 947.004 L 1134,2835 l 172,406 h 238 z m 2310,258 -99,238 -98,-238 z m -1239,94 c -19,-11 -43,-12 -71,-12 h -174 v 133 h 176 c 25,0 51,-1 68,-10 18,-9 30,-28 30,-53 0,-27 -11,-47 -29,-58 z m -2156,-94 -98,238 -97,-238 z"
         style="fill:#ffffff;fill-opacity:1;fill-rule:evenodd;stroke:none"
         id="path46" /><path
         d="m 2778,2014 c 0,-166 -124,-200 -249,-200 h -179 v -201 h -278 l -175,197 -183,-198 h -566 v 599 h 575 l 176,-196 182,196 h 457 c 113,0 240,-31 240,-197 z M 1641,1738 h -351 v 119 h 314 v 122 h -314 v 108 h 358 l 156,-174 z m 567,-71 -219,244 219,236 z m 328,268 h -186 v 152 h 187 c 52,0 87,-21 87,-73 0,-52 -34,-79 -88,-79 z m 964,276 h 477 v -124 h -335 v -108 h 327 v -122 h -327 v -119 l 335,-1 v -124 h -477 z m -181,-320 c 32,-12 58,-33 70,-50 20,-29 23,-57 24,-109 v -119 h -143 v 75 c 0,36 3,89 -23,117 -21,22 -53,27 -105,27 h -153 v -219 h -144 v 599 h 330 c 73,0 125,-3 172,-28 45,-27 73,-65 73,-133 0,-96 -63,-145 -101,-160 z m -86,74 c -19,-11 -43,-12 -70,-12 h -174 v 134 h 176 c 25,0 51,-1 68,-10 19,-10 30,-28 30,-54 0,-26 -12,-47 -30,-58 z m 1290,-37 c 28,-29 43,-66 43,-127 0,-129 -81,-189 -225,-189 h -279 v 129 h 278 c 27,0 46,4 59,15 9,9 16,22 16,39 0,18 -8,32 -17,40 -11,9 -26,13 -51,14 -134,4 -301,-4 -301,185 0,87 54,178 204,178 h 287 v -127 h -262 c -26,0 -43,-1 -58,-11 -16,-10 -21,-24 -21,-43 0,-22 13,-38 31,-44 15,-5 31,-7 55,-7 l 77,-2 c 79,-4 132,-17 164,-50 z m 571,-239 c -35,-51 -103,-77 -195,-77 h -276 v 129 h 275 c 27,0 46,4 58,15 10,9 17,22 17,39 0,18 -7,32 -17,40 -11,9 -26,13 -51,14 -134,4 -302,-4 -302,185 0,87 55,178 205,178 h 285 v 118 h -265 c -80,0 -138,-19 -179,-49 v 49 h -392 c -62,0 -135,-16 -171,-49 l 1,49 h -699 v -49 c -56,40 -149,49 -193,49 h -461 v -49 c -44,43 -142,49 -202,49 h -516 l -118,-128 -109,128 h -771 v -835 h 757 l 122,130 115,-130 h 466 v 196 h 46 c 61,-1 135,1 199,29 v -225 h 384 v 218 h 19 c 24,0 26,-1 26,-25 v -193 h 1168 c 74,0 151,19 194,53 v -53 h 371 c 77,0 152,11 210,38 v 156 z m 0,395 h -261 c -26,0 -43,-1 -57,-11 -15,-10 -21,-24 -21,-43 0,-22 13,-38 32,-44 14,-5 31,-7 55,-7 l 77,-2 c 78,-2 131,-16 163,-48 5,-5 9,-10 13,-15 v 170 h -1"
         style="fill:#ffffff;fill-opacity:1;fill-rule:evenodd;stroke:none"
         id="path48" /><path
         d="m 2802,3079 c 0,-95 -64,-144 -100,-159 31,-12 58,-33 70,-51 20,-29 24,-56 24,-109 v -118 h -144 l -1,75 c 0,36 4,87 -23,116 -21,21 -52,26 -104,26 h -154 v -217 h -143 v 598 h 329 c 72,0 127,-2 173,-29 46,-25 73,-65 73,-132"
         style="fill:#4a9ccf;fill-opacity:1;fill-rule:evenodd;stroke:none"
         id="path50" /><path
         d="m 2128,2643 h -478 v 598 h 478 v -125 h -334 v -107 h 326 v -123 h -326 v -120 h 334"
         style="fill:#4ca5d5;fill-opacity:1;fill-rule:evenodd;stroke:none"
         id="path52" /><path
         d="m 1544,2643 h -146 l -1,468 -207,-468 H 1064 L 856,3112 V 2643 H 565 l -55,133 H 212.004 l -55,-133 H 2 l 255.996,598 H 470 l 242.996,-567 v 567 H 947.004 L 1134,2835 l 172,406 h 238"
         style="fill:#64b6dc;fill-opacity:1;fill-rule:evenodd;stroke:none"
         id="path54" /><path
         d="m 2615,2995 c -19,-11 -43,-12 -71,-12 h -174 v 133 h 176 c 25,0 51,-1 68,-10 18,-9 30,-27 30,-53 0,-27 -11,-47 -29,-58"
         style="fill:#ffffff;fill-opacity:1;fill-rule:evenodd;stroke:none"
         id="path56" /><path
         d="m 459,2901 -98,238 -98.004,-238"
         style="fill:#ffffff;fill-opacity:1;fill-rule:evenodd;stroke:none"
         id="path58" /></g></g></svg>
