<?xml version="1.0" encoding="UTF-8" standalone="no"?>
<svg
   xmlns:dc="http://purl.org/dc/elements/1.1/"
   xmlns:cc="http://creativecommons.org/ns#"
   xmlns:rdf="http://www.w3.org/1999/02/22-rdf-syntax-ns#"
   xmlns:svg="http://www.w3.org/2000/svg"
   xmlns="http://www.w3.org/2000/svg"
   xmlns:sodipodi="http://sodipodi.sourceforge.net/DTD/sodipodi-0.dtd"
   xmlns:inkscape="http://www.inkscape.org/namespaces/inkscape"
   version="1.1"
   id="svg2"
   xml:space="preserve"
   width="682.66669"
   height="525.8667"
   viewBox="0 0 682.66669 525.8667"
   sodipodi:docname="jcb.eps"><metadata
     id="metadata8"><rdf:RDF><cc:Work
         rdf:about=""><dc:format>image/svg+xml</dc:format><dc:type
           rdf:resource="http://purl.org/dc/dcmitype/StillImage" /></cc:Work></rdf:RDF></metadata><defs
     id="defs6"><clipPath
       clipPathUnits="userSpaceOnUse"
       id="clipPath22"><path
         d="m 3712,1603 h 328 c 9,0 31,3 41,3 63,13 116,69 116,147 0,75 -53,131 -116,147 -9,3 -28,3 -41,3 h -329 v -300 z"
         id="path20" /></clipPath><linearGradient
       x1="0"
       y1="0"
       x2="1"
       y2="0"
       gradientUnits="userSpaceOnUse"
       gradientTransform="matrix(1406.35,0,0,871.03,3432.63,1753)"
       spreadMethod="pad"
       id="linearGradient32"><stop
         style="stop-opacity:1;stop-color:#23783b"
         offset="0"
         id="stop24" /><stop
         style="stop-opacity:1;stop-color:#27883d"
         offset="0.2285"
         id="stop26" /><stop
         style="stop-opacity:1;stop-color:#40ab3c"
         offset="0.7433"
         id="stop28" /><stop
         style="stop-opacity:1;stop-color:#54bb36"
         offset="1"
         id="stop30" /></linearGradient><clipPath
       clipPathUnits="userSpaceOnUse"
       id="clipPath42"><path
         d="m 4003,3678 c -313,0 -570,-253 -570,-570 v -591 h 804 c 19,0 41,0 56,-3 182,-9 316,-103 316,-266 0,-128 -91,-238 -260,-260 v -6 c 185,-13 325,-116 325,-275 0,-172 -156,-285 -363,-285 H 3430 V 264 h 836 c 313,0 570,253 570,570 v 2844 z"
         id="path40" /></clipPath><linearGradient
       x1="0"
       y1="0"
       x2="1"
       y2="0"
       gradientUnits="userSpaceOnUse"
       gradientTransform="matrix(1406,0,0,3416.36,3432.58,1971)"
       spreadMethod="pad"
       id="linearGradient52"><stop
         style="stop-opacity:1;stop-color:#23783b"
         offset="0"
         id="stop44" /><stop
         style="stop-opacity:1;stop-color:#27883d"
         offset="0.2285"
         id="stop46" /><stop
         style="stop-opacity:1;stop-color:#40ab3c"
         offset="0.7433"
         id="stop48" /><stop
         style="stop-opacity:1;stop-color:#54bb36"
         offset="1"
         id="stop50" /></linearGradient><clipPath
       clipPathUnits="userSpaceOnUse"
       id="clipPath62"><path
         d="m 4156,2210 c 0,75 -53,125 -116,135 -6,0 -22,3 -31,3 h -297 v -276 h 297 c 9,0 28,0 31,3 63,10 116,60 116,135 z"
         id="path60" /></clipPath><linearGradient
       x1="0"
       y1="0"
       x2="1"
       y2="0"
       gradientUnits="userSpaceOnUse"
       gradientTransform="matrix(1406.41,0,0,871.576,3432.59,2210)"
       spreadMethod="pad"
       id="linearGradient72"><stop
         style="stop-opacity:1;stop-color:#23783b"
         offset="0"
         id="stop64" /><stop
         style="stop-opacity:1;stop-color:#27883d"
         offset="0.2285"
         id="stop66" /><stop
         style="stop-opacity:1;stop-color:#40ab3c"
         offset="0.7433"
         id="stop68" /><stop
         style="stop-opacity:1;stop-color:#54bb36"
         offset="1"
         id="stop70" /></linearGradient><clipPath
       clipPathUnits="userSpaceOnUse"
       id="clipPath82"><path
         d="M 854,3678 C 541,3678 284,3425 284,3108 V 1703 c 160,-78 325,-128 491,-128 197.004,0 304,119 304,282 v 663 h 488 v -660 c 0,-257 -160,-466 -701,-466 -328.996,0 -585,72 -585,72 V 267 h 836 c 313,0 570,253 570,570 v 2841 z"
         id="path80" /></clipPath><linearGradient
       x1="0"
       y1="0"
       x2="1"
       y2="0"
       gradientUnits="userSpaceOnUse"
       gradientTransform="matrix(1428.12,0,0,3466.94,284.121,1972.5)"
       spreadMethod="pad"
       id="linearGradient92"><stop
         style="stop-opacity:1;stop-color:#292e6c"
         offset="0"
         id="stop84" /><stop
         style="stop-opacity:1;stop-color:#244c97"
         offset="0.4751"
         id="stop86" /><stop
         style="stop-opacity:1;stop-color:#2f62b6"
         offset="0.8261"
         id="stop88" /><stop
         style="stop-opacity:1;stop-color:#346bbd"
         offset="1"
         id="stop90" /></linearGradient><clipPath
       clipPathUnits="userSpaceOnUse"
       id="clipPath102"><path
         d="m 2429,3678 c -313,0 -570,-253 -570,-570 v -745 c 144,122 394,200 798,182 216,-9 448,-69 448,-69 v -241 c -116,59 -253,113 -432,125 -307,22 -491,-128 -491,-391 0,-266 185,-416 491,-391 178,13 316,69 432,125 v -241 c 0,0 -228,-59 -448,-69 -404,-19 -654,59 -798,182 V 261 h 836 c 313,0 570,253 570,570 v 2847 z"
         id="path100" /></clipPath><linearGradient
       x1="0"
       y1="0"
       x2="1"
       y2="0"
       gradientUnits="userSpaceOnUse"
       gradientTransform="matrix(1387.04,0,0,3373.38,1850.91,1969.5)"
       spreadMethod="pad"
       id="linearGradient114"><stop
         style="stop-opacity:1;stop-color:#68242b"
         offset="0"
         id="stop104" /><stop
         style="stop-opacity:1;stop-color:#851f2e"
         offset="0.1735"
         id="stop106" /><stop
         style="stop-opacity:1;stop-color:#bf1b33"
         offset="0.5731"
         id="stop108" /><stop
         style="stop-opacity:1;stop-color:#dd1937"
         offset="0.8585"
         id="stop110" /><stop
         style="stop-opacity:1;stop-color:#e61739"
         offset="1"
         id="stop112" /></linearGradient></defs><sodipodi:namedview
     pagecolor="#ffffff"
     bordercolor="#666666"
     borderopacity="1"
     objecttolerance="10"
     gridtolerance="10"
     guidetolerance="10"
     inkscape:pageopacity="0"
     inkscape:pageshadow="2"
     inkscape:window-width="640"
     inkscape:window-height="480"
     id="namedview4" /><g
     id="g10"
     inkscape:groupmode="layer"
     inkscape:label="ink_ext_XXXXXX"
     transform="matrix(1.3333333,0,0,-1.3333333,0,525.86667)"><g
       id="g12"
       transform="scale(0.1)"><path
         d="M 5120,795 C 5120,357 4763,0 4325,0 H 0 v 3149 c 0,438 357.004,795 795,795 H 5120 V 795"
         style="fill:#ffffff;fill-opacity:1;fill-rule:nonzero;stroke:none"
         id="path14" /><g
         id="g16"><g
           id="g18"
           clip-path="url(#clipPath22)"><path
             d="m 3712,1603 h 328 c 9,0 31,3 41,3 63,13 116,69 116,147 0,75 -53,131 -116,147 -9,3 -28,3 -41,3 h -329 v -300 h 1"
             style="fill:url(#linearGradient32);fill-opacity:1;fill-rule:nonzero;stroke:none"
             id="path34" /></g></g><g
         id="g36"><g
           id="g38"
           clip-path="url(#clipPath42)"><path
             d="m 4003,3678 c -313,0 -570,-253 -570,-570 v -591 h 804 c 19,0 41,0 56,-3 182,-9 316,-103 316,-266 0,-128 -91,-238 -260,-260 v -6 c 185,-13 325,-116 325,-275 0,-172 -156,-285 -363,-285 H 3430 V 264 h 836 c 313,0 570,253 570,570 v 2844 h -833"
             style="fill:url(#linearGradient52);fill-opacity:1;fill-rule:nonzero;stroke:none"
             id="path54" /></g></g><g
         id="g56"><g
           id="g58"
           clip-path="url(#clipPath62)"><path
             d="m 4156,2210 c 0,75 -53,125 -116,135 -6,0 -22,3 -31,3 h -297 v -276 h 297 c 9,0 28,0 31,3 63,10 116,60 116,135"
             style="fill:url(#linearGradient72);fill-opacity:1;fill-rule:nonzero;stroke:none"
             id="path74" /></g></g><g
         id="g76"><g
           id="g78"
           clip-path="url(#clipPath82)"><path
             d="M 854,3678 C 541,3678 284,3425 284,3108 V 1703 c 160,-78 325,-128 491,-128 197.004,0 304,119 304,282 v 663 h 488 v -660 c 0,-257 -160,-466 -701,-466 -328.996,0 -585,72 -585,72 V 267 h 836 c 313,0 570,253 570,570 V 3678 H 854"
             style="fill:url(#linearGradient92);fill-opacity:1;fill-rule:nonzero;stroke:none"
             id="path94" /></g></g><g
         id="g96"><g
           id="g98"
           clip-path="url(#clipPath102)"><path
             d="m 2429,3678 c -313,0 -570,-253 -570,-570 v -745 c 144,122 394,200 798,182 216,-9 448,-69 448,-69 v -241 c -116,59 -253,113 -432,125 -307,22 -491,-128 -491,-391 0,-266 185,-416 491,-391 178,13 316,69 432,125 v -241 c 0,0 -228,-59 -448,-69 -404,-19 -654,59 -798,182 V 261 h 836 c 313,0 570,253 570,570 v 2847 h -836"
             style="fill:url(#linearGradient114);fill-opacity:1;fill-rule:nonzero;stroke:none"
             id="path116" /></g></g></g></g></svg>
