<?xml version="1.0" encoding="UTF-8" standalone="no"?>
<svg
   xmlns:dc="http://purl.org/dc/elements/1.1/"
   xmlns:cc="http://creativecommons.org/ns#"
   xmlns:rdf="http://www.w3.org/1999/02/22-rdf-syntax-ns#"
   xmlns:svg="http://www.w3.org/2000/svg"
   xmlns="http://www.w3.org/2000/svg"
   xmlns:sodipodi="http://sodipodi.sourceforge.net/DTD/sodipodi-0.dtd"
   xmlns:inkscape="http://www.inkscape.org/namespaces/inkscape"
   version="1.1"
   id="svg2"
   xml:space="preserve"
   width="682.66669"
   height="398.13333"
   viewBox="0 0 682.66669 398.13333"
   sodipodi:docname="mastercard.eps"><metadata
     id="metadata8"><rdf:RDF><cc:Work
         rdf:about=""><dc:format>image/svg+xml</dc:format><dc:type
           rdf:resource="http://purl.org/dc/dcmitype/StillImage" /></cc:Work></rdf:RDF></metadata><defs
     id="defs6" /><sodipodi:namedview
     pagecolor="#ffffff"
     bordercolor="#666666"
     borderopacity="1"
     objecttolerance="10"
     gridtolerance="10"
     guidetolerance="10"
     inkscape:pageopacity="0"
     inkscape:pageshadow="2"
     inkscape:window-width="640"
     inkscape:window-height="480"
     id="namedview4" /><g
     id="g10"
     inkscape:groupmode="layer"
     inkscape:label="ink_ext_XXXXXX"
     transform="matrix(1.3333333,0,0,-1.3333333,0,398.13333)"><g
       id="g12"
       transform="scale(0.1)"><path
         d="m 1493,2986 c 825,0 1493,-669 1493,-1493 C 2986,669 2317,0 1493,0 669,0 0,668 0,1493 0,2318 669,2986 1493,2986"
         style="fill:#ea1c24;fill-opacity:1;fill-rule:evenodd;stroke:none"
         id="path14" /><path
         d="m 3627,2986 c -418,0 -796,-172 -1067,-448 264,-269 427,-638 427,-1045 C 2987,1086 2824,717 2560,448 2831,171 3209,0 3627,0 c 825,0 1493,669 1493,1493 0,824 -669,1493 -1493,1493"
         style="fill:#f9ac1f;fill-opacity:1;fill-rule:nonzero;stroke:none"
         id="path16" /><path
         d="m 2560,2538 c -264,-269 -427,-638 -427,-1045 0,-407 163,-776 427,-1045 264,269 427,638 427,1045 0,407 -163,776 -427,1045"
         style="fill:#f47116;fill-opacity:1;fill-rule:nonzero;stroke:none"
         id="path18" /></g></g></svg>
