<?xml version="1.0" encoding="UTF-8" standalone="no"?>
<!-- Created with Inkscape (http://www.inkscape.org/) -->

<svg
   width="191.96188mm"
   height="44.318645mm"
   viewBox="0 0 191.96188 44.318645"
   version="1.1"
   id="svg3049"
   xml:space="preserve"
   sodipodi:docname="bundion.svg"
   inkscape:version="1.2.1 (9c6d41e410, 2022-07-14)"
   xmlns:inkscape="http://www.inkscape.org/namespaces/inkscape"
   xmlns:sodipodi="http://sodipodi.sourceforge.net/DTD/sodipodi-0.dtd"
   xmlns="http://www.w3.org/2000/svg"
   xmlns:svg="http://www.w3.org/2000/svg"><sodipodi:namedview
     id="namedview3051"
     pagecolor="#ffffff"
     bordercolor="#000000"
     borderopacity="0.25"
     inkscape:showpageshadow="2"
     inkscape:pageopacity="0.0"
     inkscape:pagecheckerboard="0"
     inkscape:deskcolor="#d1d1d1"
     inkscape:document-units="mm"
     showgrid="false"
     inkscape:zoom="1"
     inkscape:cx="444.5"
     inkscape:cy="138"
     inkscape:window-width="1920"
     inkscape:window-height="1027"
     inkscape:window-x="-8"
     inkscape:window-y="-8"
     inkscape:window-maximized="1"
     inkscape:current-layer="layer1" /><defs
     id="defs3046" /><g
     inkscape:label="Layer 1"
     inkscape:groupmode="layer"
     id="layer1"
     transform="translate(-11.310622,-66.081977)"><path
       style="fill:#000000;stroke-width:0.196321"
       d="m 40.955027,110.23348 c -7.984919,-0.31177 -18.52424,-1.41956 -22.184253,-2.33179 -3.137186,-0.78193 -4.515379,-1.53113 -4.515379,-2.4546 0,-0.76868 0.207619,-1.08622 0.956737,-1.46324 2.020124,-1.01672 6.25865,-1.42679 10.600881,-1.02562 17.73631,1.63864 26.804037,1.69216 37.228108,0.21971 8.103654,-1.14468 12.099209,-3.578953 10.607909,-6.462813 -0.77836,-1.50517 -4.049219,-3.44554 -7.466776,-4.4295 -2.227446,-0.64131 -6.1743,-1.33842 -11.092127,-1.95913 -4.375683,-0.55229 -11.990277,-1.28061 -13.388686,-1.28061 h -0.942734 v 2.1156 c 0,6.97887 -1.853811,11.430533 -4.760023,11.430533 -0.702422,0 -1.18961,-0.37751 -1.393456,-1.07976 -0.123721,-0.42622 -0.9371,-6.065013 -1.33098,-9.227083 -0.309802,-2.4871 -0.30599,-7.34937 0.0075,-9.52156 0.368143,-2.55116 1.431061,-5.44301 2.363202,-6.42951 1.303435,-1.37943 3.93256,0.74794 5.015888,4.05864 0.286396,0.87524 0.329805,1.49545 0.243895,3.4847 l -0.104504,2.41995 3.169472,-4e-4 c 11.424976,-0.002 21.850179,-1.57029 26.924293,-4.05142 2.718246,-1.32917 3.828256,-2.49232 3.828256,-4.01154 0,-1.43498 -2.986371,-3.30724 -7.16571,-4.49245 -4.842489,-1.37327 -10.251165,-1.81045 -19.043121,-1.53923 -12.299937,0.3794 -22.603775,2.26883 -32.545177,5.96784 -3.577795,1.33123 -4.65762,1.11994 -4.65762,-0.91138 0,-2.28614 2.07066,-4.34703 6.141741,-6.11275 6.660788,-2.88894 21.73681,-5.06494 35.085633,-5.06409 9.815535,5.9e-4 18.210018,1.4966 23.458184,4.18047 4.9777,2.54555 7.0806,6.74921 5.32077,10.63612 -1.20135,2.65341 -5.19623,5.53312 -9.981234,7.19497 -0.728841,0.25313 -1.325166,0.50723 -1.325166,0.56465 0,0.0574 0.626158,0.26571 1.391461,0.46286 3.287679,0.84692 6.333089,2.57138 7.689779,4.35432 1.08275,1.42293 1.52008,2.74674 1.52008,4.60128 0,2.120483 -0.4972,3.395153 -1.93077,4.949833 -3.93761,4.27026 -12.361748,6.5984 -26.143104,7.22506 -4.461076,0.20286 -5.98569,0.20048 -11.582929,-0.0181 z m 13.644298,-0.57866 c 14.073862,-0.93196 22.470615,-3.89827 24.876855,-8.78821 0.56783,-1.153953 0.64455,-1.498873 0.64235,-2.887863 -0.002,-1.33846 -0.0865,-1.74347 -0.5572,-2.67374 -1.3389,-2.64628 -4.27205,-4.59612 -8.667376,-5.76172 -2.72832,-0.72353 -2.577677,-0.65874 -2.243464,-0.96478 0.154141,-0.14114 0.898666,-0.45236 1.654502,-0.6916 0.755835,-0.23924 2.269188,-0.86096 3.363008,-1.3816 4.81164,-2.29025 7.45473,-4.95431 7.67827,-7.73918 0.32148,-4.00502 -3.02636,-7.49101 -9.140359,-9.51754 -5.477877,-1.81568 -11.883062,-2.63905 -20.256917,-2.60396 -7.215109,0.0302 -12.914554,0.44167 -19.435762,1.40306 -7.841441,1.15603 -12.510095,2.38776 -16.170174,4.26619 -3.221305,1.65324 -5.194145,4.13245 -4.409842,5.54172 0.456231,0.81978 1.351281,0.74355 4.320546,-0.36795 5.122892,-1.91768 12.315286,-3.75176 17.731876,-4.52167 11.590048,-1.6474 23.682712,-1.84369 30.477896,-0.49472 5.975547,1.18625 10.069796,3.16966 10.668596,5.16826 1.26825,4.23305 -7.46922,7.71662 -22.191694,8.84766 -1.452274,0.11157 -4.885637,0.20286 -7.629699,0.20286 h -4.989205 l 0.09119,-2.11045 c 0.05015,-1.16075 0.0083,-2.59634 -0.09297,-3.19022 -0.248615,-1.4577 -1.207578,-3.19813 -2.284419,-4.14601 -1.508284,-1.32764 -2.163049,-0.89701 -3.36158,2.21088 -1.138188,2.95142 -1.462718,7.63126 -0.876166,12.63462 0.532022,4.53821 1.226161,9.076913 1.453035,9.500833 0.348285,0.65078 1.407387,0.55439 2.274562,-0.207 1.686645,-1.480893 2.443102,-4.138463 2.61748,-9.195673 l 0.125234,-3.63193 1.766887,0.047 c 3.927331,0.10442 15.510408,1.38796 20.01974,2.21843 5.114305,0.94188 8.860854,2.3745 10.767955,4.11748 1.63815,1.49718 2.04002,2.67771 1.41818,4.16599 -0.88116,2.108923 -4.913642,3.732653 -11.529652,4.642573 -5.635324,0.77504 -7.781682,0.9012 -15.2774,0.89794 -7.850424,-0.003 -10.132159,-0.13286 -22.773216,-1.29198 -3.903708,-0.35795 -8.454699,0.34112 -9.586079,1.4725 l -0.504799,0.5048 0.464235,0.49415 c 1.246314,1.32664 6.661764,2.41603 16.109033,3.24055 8.833577,0.77095 17.452963,0.98787 23.456536,0.59032 z M 86.99075,106.5583 c -1.36224,-0.47106 -2.35198,-1.2817 -2.88434,-2.36239 -0.40821,-0.82867 -0.44941,-1.17145 -0.42875,-3.56709 0.0305,-3.533253 0.64093,-10.563473 0.97377,-11.213943 0.43822,-0.8564 1.89107,-1.41727 3.71508,-1.43419 1.76623,-0.0164 2.6938,0.2791 3.00241,0.95642 0.23875,0.52399 -0.0498,3.36098 -0.83931,8.25306 -0.27191,1.68474 -0.49438,3.560593 -0.49438,4.168573 v 1.10541 l 0.50804,-0.47595 c 0.65873,-0.61713 1.85524,-3.160553 3.50253,-7.445333 1.63734,-4.25891 1.62245,-4.22856 2.20435,-4.49369 1.23295,-0.56177 4.11949,-0.0374 5.2233,0.94883 l 0.62434,0.55785 -0.24333,1.34627 c -0.78582,4.34765 -0.96708,7.402363 -0.50993,8.593663 0.35255,0.91872 1.47833,-0.34714 2.8662,-3.222823 1.28837,-2.66953 1.68736,-3.83621 2.03661,-5.95523 0.15722,-0.95388 0.4167,-1.98736 0.57662,-2.29662 0.34871,-0.67432 1.31869,-1.42674 2.23461,-1.7334 0.90385,-0.30262 2.64094,-0.28194 3.41263,0.0406 1.37969,0.57672 1.45822,1.14203 0.64513,4.64394 -0.28831,1.24173 -0.56844,2.47856 -0.62251,2.7485 -0.0559,0.27932 0.22328,-0.0517 0.64805,-0.76817 1.10326,-1.86103 2.31825,-3.02847 3.60052,-3.45962 2.06294,-0.69364 4.4543,-0.38191 4.84312,0.63133 0.0648,0.16889 -0.0481,0.98093 -0.25089,1.80453 -0.40881,1.66021 -0.51871,5.38487 -0.17591,5.96163 0.18789,0.316123 0.25788,0.304113 0.94356,-0.16182 0.99364,-0.67519 3.09648,-3.36683 3.96609,-5.07658 2.26699,-4.45716 3.75859,-5.93506 6.76482,-6.70272 1.74634,-0.44594 4.48096,-0.30846 5.64002,0.28354 l 0.83016,0.42402 0.0883,-0.44357 c 0.12607,-0.63354 0.86419,-7.58965 1.01574,-9.57249 0.16322,-2.1354 0.47739,-2.81592 1.5368,-3.32877 1.6458,-0.79672 4.34189,-0.34379 5.13206,0.86216 0.37899,0.57841 0.4031,0.25555 -0.47005,6.29487 -1.42067,9.82631 -1.66087,18.576703 -0.54067,19.696893 0.57606,0.57606 1.56475,-0.51768 2.93866,-3.250903 1.37264,-2.7307 1.93541,-4.38231 2.09188,-6.13915 0.18757,-2.10608 0.43737,-2.64252 1.46139,-3.13823 1.74113,-0.84287 4.24998,-0.27524 5.0823,1.14989 0.36325,0.62197 0.36264,0.66796 -0.0346,2.63585 -0.54669,2.70836 -0.63107,3.45327 -0.64242,5.67094 -0.0146,2.856443 0.48968,3.425883 1.6021,1.809053 0.81858,-1.189783 2.57304,-4.928563 3.11644,-6.641203 0.55246,-1.74121 0.95712,-2.52185 1.95743,-3.77609 1.5568,-1.95199 3.79193,-3.01087 6.35547,-3.01087 3.62559,0 6.29607,1.54129 7.74299,4.46894 0.7185,1.45379 0.74028,1.56027 0.73018,3.57003 -0.008,1.65467 -0.0969,2.28885 -0.44032,3.15132 -0.86122,2.163033 -2.76774,4.072413 -4.94809,4.955513 -0.92979,0.37659 -1.44789,0.43775 -3.7301,0.44032 -2.49793,0.003 -2.71939,-0.0289 -3.85131,-0.55202 -0.66054,-0.30526 -1.5819,-0.94315 -2.04748,-1.41753 l -0.84649,-0.86252 -0.63259,0.92673 c -1.3745,2.01364 -3.2811,3.44388 -4.91814,3.68937 -1.3717,0.2057 -3.43582,-0.52079 -4.49823,-1.5832 -0.47365,-0.47365 -0.91657,-1.08187 -0.98427,-1.3516 -0.11877,-0.47324 -0.16349,-0.44723 -1.27667,0.74277 -1.57827,1.68717 -3.14385,2.50708 -5.01669,2.62727 -0.78007,0.0501 -1.73988,0.0307 -2.13291,-0.043 -0.91693,-0.17201 -2.15531,-1.28915 -2.76684,-2.49594 l -0.4746,-0.93659 -0.98516,0.98517 c -2.70962,2.70961 -7.33725,2.87122 -10.09316,0.35248 -1.01799,-0.93039 -2.27028,-2.93232 -2.27672,-3.63961 -0.003,-0.276 -0.20651,-0.14946 -0.83547,0.51828 -1.16528,1.23713 -2.50113,2.29489 -3.34186,2.64617 -0.93908,0.39237 -3.27237,0.38891 -4.21837,-0.006 -1.76271,-0.73632 -2.60857,-2.16764 -2.7783,-4.701283 l -0.11836,-1.76689 -0.51119,0.9816 c -0.49041,0.9417 -1.31934,3.385953 -1.75074,5.162383 -0.23964,0.98677 -0.89961,1.47883 -2.42118,1.80514 -1.23197,0.26422 -2.86105,-0.0384 -3.5922,-0.66734 -0.4106,-0.35318 -0.53248,-0.66415 -0.60552,-1.54494 l -0.0914,-1.10276 -0.8563,1.1632 c -0.48693,0.66145 -1.33749,1.4827 -1.97181,1.90386 -1.00873,0.66976 -1.26155,0.74729 -2.64131,0.80995 -1.32289,0.0601 -1.6776,-1.5e-4 -2.66735,-0.45282 -1.74293,-0.79717 -2.693,-1.88457 -3.09197,-3.53893 -0.13881,-0.57556 -0.15265,-0.56309 -0.85849,0.77399 -0.87941,1.6659 -2.51903,3.47489 -3.64244,4.01872 -1.01753,0.49258 -2.23889,0.51076 -3.56253,0.053 z m 3.64409,-0.79072 c 1.34937,-0.85733 2.72515,-2.64757 3.83593,-4.99152 0.45817,-0.966813 0.79959,-0.932003 0.96281,0.0982 0.32168,2.0304 1.69272,3.5776 3.69794,4.17309 1.35711,0.40301 2.02849,0.36644 3.17377,-0.17288 1.16592,-0.54905 2.1158,-1.44336 3.2492,-3.05913 1.14047,-1.62585 1.36434,-1.56782 1.36434,0.35366 0,1.6898 0.1175,1.89977 1.33221,2.38068 1.23392,0.48851 3.72601,-0.0761 4.0596,-0.91967 0.0763,-0.19295 0.30282,-0.98573 0.50338,-1.76173 0.74443,-2.880283 1.97319,-5.362163 2.65476,-5.362163 0.21904,0 0.28449,0.29136 0.28449,1.26642 0,1.83178 0.33913,3.148273 1.05164,4.082443 0.82537,1.08213 1.58383,1.49606 3.01554,1.6457 1.70391,0.17809 2.93972,-0.43136 5.02007,-2.47573 1.5193,-1.493003 2.10303,-1.792013 2.10303,-1.077223 0,0.566733 0.97302,2.382973 1.74875,3.264263 0.95026,1.07955 2.30896,1.82763 3.87292,2.13239 2.19826,0.42836 4.33646,-0.3543 6.12002,-2.24015 0.57277,-0.60562 1.15691,-1.10113 1.29809,-1.10113 0.14118,0 0.40344,0.38425 0.5828,0.85389 0.47129,1.23407 1.54368,2.39504 2.57669,2.78955 2.24344,0.85678 5.77565,-0.69945 7.57119,-3.33574 0.26134,-0.38371 0.56351,-0.69805 0.67149,-0.69853 0.10797,-3.9e-4 0.457,0.498 0.77562,1.10775 0.83549,1.59888 2.56302,2.61652 4.44672,2.61944 1.48977,0.002 3.65198,-1.61623 5.04485,-3.77636 0.39972,-0.61992 0.77478,-1.1279 0.83345,-1.12885 0.0587,-9.8e-4 0.63911,0.51606 1.28986,1.14889 3.94096,3.83248 11.07532,2.42107 13.4818,-2.667133 0.5256,-1.11132 0.64047,-1.61103 0.69828,-3.03777 0.0493,-1.21704 -0.0236,-1.98691 -0.25366,-2.67968 -1.0831,-3.26091 -3.96317,-5.16586 -7.8104,-5.16598 -2.1199,-6e-5 -3.36665,0.50503 -4.95533,2.00753 -1.42719,1.34978 -2.10549,2.46258 -2.84541,4.66814 -0.78382,2.33639 -2.54504,5.996873 -3.34457,6.951293 -0.60754,0.72524 -1.18292,0.91322 -1.73119,0.5656 -0.84414,-0.53522 -0.80692,-4.481503 0.0851,-9.023283 0.38146,-1.9422 0.25293,-2.38854 -0.84832,-2.94605 -1.07574,-0.5446 -1.88231,-0.67317 -2.7527,-0.4388 -1.27867,0.34431 -1.66452,0.93656 -1.8301,2.80906 -0.24962,2.82299 -2.32546,7.717773 -4.0808,9.622433 -0.64702,0.70207 -1.65483,0.74509 -2.08472,0.089 -1.09306,-1.66822 -0.83627,-10.285633 0.59685,-20.029303 0.81559,-5.54512 0.81473,-5.51615 0.17962,-6.10476 -0.98439,-0.9123 -2.44561,-1.12025 -3.72938,-0.53075 -1.34116,0.61587 -1.49698,0.926 -1.67519,3.33428 -0.26814,3.62344 -1.02914,10.12586 -1.20884,10.32902 -0.10943,0.12372 -0.28991,0.10717 -0.50791,-0.0466 -1.37769,-0.97163 -3.26043,-1.34795 -5.18957,-1.03727 -2.89347,0.46598 -4.89044,2.04412 -6.60859,5.22256 -2.35607,4.35854 -4.67531,7.154163 -5.93507,7.154163 -0.44864,0 -0.62511,-0.12083 -0.78849,-0.53988 -0.31053,-0.796493 -0.10209,-5.628763 0.28821,-6.681353 0.29575,-0.79761 0.29218,-0.86038 -0.0694,-1.22201 -0.50974,-0.50974 -1.19822,-0.66047 -2.4341,-0.53292 -2.29314,0.23668 -3.97491,1.73635 -5.47299,4.88039 -0.34729,0.72885 -0.74186,1.33015 -0.87683,1.33623 -0.41975,0.0189 -0.283,-1.39931 0.46315,-4.80337 0.38971,-1.77788 0.65949,-3.36038 0.59952,-3.51667 -0.40005,-1.04251 -2.7254,-1.31029 -4.34084,-0.49987 -1.27903,0.64165 -1.661,1.21566 -1.90066,2.85624 -0.31524,2.15801 -0.90659,3.91952 -2.23641,6.66184 -1.34217,2.767763 -2.14706,3.828253 -2.90558,3.828253 -0.9168,0 -1.01881,-0.39217 -0.99108,-3.810193 0.0188,-2.31853 0.12665,-3.61852 0.40528,-4.88534 0.45158,-2.05317 0.38425,-2.22103 -1.15881,-2.88907 -1.385,-0.59962 -3.13776,-0.64488 -3.66142,-0.0945 -0.20445,0.21488 -0.96981,1.93671 -1.7008,3.8263 -1.48121,3.82892 -2.79781,6.766663 -3.43135,7.656383 -0.30173,0.42375 -0.57998,0.5891 -0.99132,0.5891 -0.97929,0 -0.99043,-0.86589 -0.0834,-6.478593 0.25302,-1.56566 0.56454,-3.76142 0.69227,-4.87946 0.22492,-1.96887 0.21909,-2.04594 -0.18525,-2.45028 -0.63265,-0.63266 -2.94664,-0.71133 -4.26323,-0.14495 -0.53403,0.22973 -1.08759,0.60446 -1.23015,0.83272 -0.30792,0.49306 -0.9974,7.97108 -1.00157,10.862873 -0.003,2.36411 0.20927,3.21882 1.03495,4.15921 1.41967,1.61692 3.8455,2.09668 5.44926,1.07771 z m 42.78835,-2.72444 c -1.52676,-0.78546 -2.13702,-3.516843 -1.49436,-6.688503 0.57597,-2.84248 1.61167,-4.59502 3.15788,-5.34353 1.09432,-0.52975 2.25859,-0.45427 2.9454,0.19095 1.18612,1.11431 1.41395,4.74618 0.47419,7.55917 -0.49779,1.490033 -1.74702,3.494033 -2.53659,4.069153 -0.74457,0.54235 -1.74362,0.62582 -2.54652,0.21276 z m 1.92283,-0.53566 c 2.3761,-1.25886 4.07321,-7.207133 2.84174,-9.960113 -0.49071,-1.097 -1.01705,-1.42246 -2.07162,-1.28101 -2.06749,0.2773 -3.86564,3.671 -3.8685,7.30109 -0.002,1.951173 0.2659,2.949863 0.98159,3.665543 0.61933,0.61934 1.29943,0.70753 2.11679,0.27449 z m 33.50332,-2.1689 c -1.02528,-1.087113 -1.36624,-2.366693 -1.36125,-5.108593 0.004,-2.04879 0.0649,-2.49112 0.469,-3.39374 0.72749,-1.62477 1.75423,-2.17189 3.00577,-1.60165 1.2254,0.55833 2.11609,3.02517 2.11609,5.8607 0,2.17901 -0.35267,3.63226 -1.06906,4.405253 -0.40266,0.43448 -0.65147,0.52091 -1.49964,0.52091 -0.90662,0 -1.0867,-0.074 -1.66091,-0.68288 z m 2.51018,0.0181 c 0.18807,-0.14279 0.53721,-0.692133 0.77587,-1.220763 0.58136,-1.28771 0.62549,-4.34658 0.0865,-5.9968 -0.76535,-2.34331 -2.31458,-3.26944 -3.25645,-1.94671 -1.29841,1.82345 -1.46652,5.15115 -0.38699,7.66057 0.64243,1.493393 1.89946,2.173053 2.78106,1.503703 z m 10.26754,4.70186 c -1.53409,-0.42094 -1.5947,-0.57202 -1.74353,-4.34579 -0.18489,-4.687853 -0.15229,-8.680483 0.0791,-9.684073 0.10952,-0.4751 0.37983,-1.1176 0.60069,-1.42777 0.91977,-1.29169 3.62372,-1.92131 5.37648,-1.25193 1.4808,0.56552 1.52961,0.88085 0.68533,4.42697 -0.76582,3.21654 -0.74565,3.47144 0.15662,1.97925 1.60234,-2.64999 3.13386,-3.6188 5.733,-3.62657 1.38048,-0.004 2.44684,0.43803 2.61594,1.08466 0.0505,0.19295 -0.0758,0.98883 -0.2805,1.76863 -0.52469,1.99851 -0.50599,6.254213 0.0275,6.254213 0.0867,0 0.65597,-0.455483 1.26508,-1.012173 1.26972,-1.16045 2.53894,-2.87547 3.40037,-4.59472 0.74546,-1.48778 1.06689,-1.75514 2.1101,-1.75514 1.77111,0 2.09037,1.1185 0.95262,3.33746 -1.57675,3.07511 -4.41642,6.273053 -6.45666,7.271243 -0.98731,0.48305 -1.2427,0.52425 -2.75699,0.44477 -1.45599,-0.0764 -1.77462,-0.16191 -2.49771,-0.67012 -1.23833,-0.87032 -1.95398,-2.40227 -2.07162,-4.434593 l -0.0928,-1.60347 -0.49124,0.9666 c -0.60543,1.19129 -1.3092,3.233843 -1.60474,4.657433 -0.23109,1.11316 -0.70927,1.73892 -1.5795,2.06694 -0.94096,0.35469 -2.43885,0.41945 -3.42746,0.14818 z m 3.18185,-0.69428 c 0.93447,-0.42418 0.99554,-0.53602 1.71518,-3.14119 0.57811,-2.092873 1.59376,-4.302853 2.11887,-4.610583 0.52633,-0.30843 0.72414,0.17001 0.72761,1.7599 0.004,1.641943 0.21638,2.467403 0.88462,3.431683 0.94099,1.35784 3.02862,2.05334 4.76221,1.58653 1.99302,-0.53667 5.47269,-4.222673 7.18802,-7.614233 0.77596,-1.53427 0.63458,-2.41146 -0.38868,-2.41146 -0.80617,0 -1.04704,0.23002 -1.88219,1.79742 -2.11177,3.96337 -5.30647,6.678643 -5.79645,4.926563 -0.29166,-1.042903 -0.15129,-5.177173 0.21764,-6.409983 0.33922,-1.13356 0.33829,-1.16676 -0.0437,-1.54873 -0.90994,-0.90993 -3.87872,-0.51532 -5.26684,0.70007 -0.78683,0.68892 -2.29727,2.89183 -2.89167,4.21738 -0.40119,0.89466 -0.90288,1.11199 -0.90244,0.39093 3.9e-4,-0.62453 0.48852,-3.27383 0.97979,-5.31766 0.22934,-0.95415 0.38977,-1.96137 0.35651,-2.23827 -0.15925,-1.32567 -2.54349,-1.76527 -4.41933,-0.81483 -0.73722,0.37353 -1.04844,0.68952 -1.43262,1.45462 l -0.4908,0.97744 0.0504,5.79146 c 0.0313,3.591013 0.13139,5.991363 0.26352,6.317583 0.43177,1.06602 2.68408,1.46629 4.25031,0.75535 z M 152.96073,87.250137 c -3.11358,-0.39892 -4.4843,-1.97477 -3.50776,-4.03269 0.38855,-0.81881 1.31618,-1.4686 2.91438,-2.04148 1.60743,-0.57619 5.02641,-0.6378 6.51826,-0.11746 1.46736,0.5118 2.21777,1.42326 2.21777,2.69372 0,0.88262 -0.0758,1.04857 -0.80016,1.75152 -0.44491,0.43177 -1.27972,0.95595 -1.88033,1.18067 -0.94528,0.35368 -3.33796,0.8217 -3.89626,0.76214 -0.10798,-0.0115 -0.81263,-0.0999 -1.5659,-0.19642 z m 4.77723,-0.91898 c 1.42149,-0.54704 2.30487,-1.18122 2.72115,-1.95351 0.33509,-0.62166 0.33358,-0.66855 -0.0443,-1.37425 -1.29381,-2.41633 -7.61311,-2.42405 -10.0799,-0.0123 -1.10824,1.08351 -0.66636,2.72342 0.89582,3.3246 1.74995,0.67344 4.77875,0.68063 6.50722,0.0155 z"
       id="path6003" /><path
       style="fill:#000000"
       d="M 97.5,164.46882 C 64.031146,162.16149 35.186255,158.46763 24,155.05645 17.783552,153.16078 12.22747,149.81759 12.73969,148.28093 14.184688,143.94594 26.639673,140.53316 41,140.53736 c 4.95,0.001 18.9,0.91497 31,2.03005 28.09926,2.5895 79.5879,3.63911 99,2.01813 45.3063,-3.78324 67.5,-11.79447 67.5,-24.36539 0,-10.01309 -15.07582,-19.47113 -40.02886,-25.112703 C 183.94989,91.824375 129.57375,85.5 115.86758,85.5 H 109.5 l -0.0173,6.75 c -0.0251,9.7854 -1.68199,23.92595 -3.52894,30.11774 -2.62378,8.79608 -11.214245,16.22889 -14.712928,12.73021 C 88.245282,132.10242 83.080723,90.580567 83.827909,75.5 84.762123,56.644615 90.163097,40.338787 95.688462,39.692357 99.02665,39.301811 104.2494,44.31838 107.60837,51.1417 109.68613,55.362422 110,57.427276 110,66.875739 v 10.875739 l 27,-0.529651 c 16.56644,-0.324979 31.63714,-1.166484 39,-2.177648 42.3961,-5.822385 65.5,-16.037386 65.5,-28.959723 0,-8.241189 -17.12967,-17.017163 -43.5,-22.286179 -13.06638,-2.610774 -69.95672,-2.586812 -93,0.03917 -30.241445,3.446278 -55.261086,8.944731 -82.458359,18.1215 C 8.1681731,46.808771 4.4688902,47.372368 2.5090974,45.010962 -1.1706483,40.577139 6.1160885,30.607695 17.818077,24.06578 50.102618,6.0173342 149.32036,-3.8855413 203.90197,5.4928351 c 39.37339,6.7652539 60.61888,20.9503299 60.58865,40.4535089 -0.0212,13.671478 -12.07748,24.930234 -37.69121,35.197913 -4.83968,1.940062 -9.15071,3.862562 -9.58007,4.272222 -0.42936,0.409661 2.89996,1.729946 7.3985,2.933967 23.40565,6.264464 36.96178,19.306734 35.60618,34.256504 -1.87278,20.6533 -26.90918,33.98078 -76.0932,40.50625 -14.22048,1.88669 -66.95695,2.71193 -86.63082,1.35562 z"
       id="path6007"
       transform="matrix(0.26458333,0,0,0.26458333,11.310622,66.081977)" /><path
       style="fill:#000000"
       d="m 286,150.60414 c -2.2,-1.01857 -5.35,-3.28697 -7,-5.04089 -2.92399,-3.10814 -3.00861,-3.48239 -3.3396,-14.77026 -0.30393,-10.36486 0.85165,-28.08004 2.52165,-38.657286 0.52499,-3.325096 1.18275,-4.124351 4.71403,-5.728038 5.42506,-2.463721 13.65041,-2.500354 16.64666,-0.07414 l 2.26431,1.833527 -3.23468,23.123095 c -1.77908,12.7177 -2.93451,24.06884 -2.56764,25.22477 0.99229,3.12642 4.52509,2.11844 6.90686,-1.97069 1.10707,-1.90067 5.31315,-11.34889 9.34683,-20.99603 4.03369,-9.64715 7.99856,-18.554553 8.81083,-19.794234 1.99167,-3.039676 8.44535,-3.041445 14.46886,-0.004 L 340,96 l -0.46106,6.5 c -0.25359,3.575 -0.47859,12.575 -0.5,20 L 339,136 l 2.64203,0.306 c 1.98003,0.22933 3.16775,-0.43231 4.74021,-2.64062 4.34396,-6.10053 11.21561,-22.00777 13.49414,-31.23769 1.29968,-5.264772 2.88502,-10.547614 3.52298,-11.73965 2.85614,-5.336734 15.98771,-7.754789 20.0284,-3.68804 1.98305,1.995848 1.98196,2.026687 -0.52664,14.85443 -1.38259,7.06993 -2.37596,14.04493 -2.20747,15.5 0.27513,2.37594 0.65121,2.03406 3.69003,-3.35443 7.17254,-12.71849 13.24083,-17.5 22.20954,-17.5 5.22137,0 9.35987,2.391999 8.3977,4.85375 -1.22408,3.13184 -2.58194,19.66299 -1.96762,23.9545 0.75463,5.27165 2.52136,6.1083 6.7472,3.19518 4.46162,-3.07566 9.06184,-9.08241 17.04487,-22.25638 3.74845,-6.18588 7.9437,-12.430856 9.32278,-13.877731 7.65101,-8.027169 23.06082,-11.307807 32.82566,-6.988351 2.63474,1.165468 5.12525,2.119032 5.53448,2.119032 0.893,0 1.55713,-4.773279 3.99666,-28.725113 1.02094,-10.023813 2.17025,-18.73317 2.55402,-19.354127 0.90571,-1.465461 8.41232,-4.870437 10.7999,-4.898798 3.07729,-0.03655 8.76598,3.149922 9.61633,5.386513 0.44045,1.158456 0.20902,6.587655 -0.51564,12.096647 -0.7231,5.497183 -1.9976,15.169878 -2.83223,21.494878 -2.5943,19.660385 -3.79232,43.64933 -2.67218,53.50735 1.12315,9.8844 2.43323,12.11647 6.51094,11.09303 5.19359,-1.30351 14.7997,-20.04446 17.47895,-34.10038 1.92306,-10.088756 2.05367,-10.488713 4.0904,-12.525436 2.70575,-2.705757 10.31974,-2.671149 14.81146,0.06732 3.26302,1.989367 3.32712,2.160871 2.89548,7.746262 -0.24277,3.141514 -1.03389,10.712384 -1.75802,16.824154 -1.60229,13.52334 -0.73582,19.70847 2.83181,20.21446 1.26715,0.17972 2.99385,-0.24583 3.83711,-0.94567 2.05739,-1.70748 9.42153,-16.50208 13.40879,-26.93831 7.08826,-18.552772 18.22729,-27.120938 33.23621,-25.565361 17.44976,1.808554 29.11717,15.289975 27.15328,31.374981 -1.89331,15.50703 -14.2331,26.85578 -30.46368,28.01707 -8.76775,0.62733 -15.44872,-1.58734 -22.76464,-7.54625 l -5.58497,-4.54901 -1.56117,2.41289 c -3.07894,4.75871 -10.58663,12.1373 -14.25265,14.00756 -7.73512,3.94617 -16.43966,1.21551 -22.35006,-7.01134 l -3.63426,-5.05863 -4.80163,5.25375 c -5.74805,6.28929 -12.59872,9.93845 -19.77493,10.53355 -4.40484,0.36529 -5.90405,0.0233 -9.06319,-2.06731 -2.08192,-1.37774 -4.88817,-4.58392 -6.23612,-7.12483 -1.34796,-2.54092 -2.92277,-4.61985 -3.4996,-4.61985 -0.57682,0 -2.79445,1.78775 -4.92807,3.97277 -5.38701,5.5168 -11.70396,8.32101 -18.6427,8.27584 -10.55918,-0.0687 -18.71245,-5.71511 -23.91541,-16.56208 l -2.78854,-5.81347 -6.83997,6.21099 c -7.71758,7.00791 -11.44268,8.91595 -17.40672,8.91595 -9.83138,0 -15.83286,-6.86468 -16.70918,-19.11247 -0.32052,-4.47957 -0.89512,-6.83251 -1.61113,-6.59743 -1.99826,0.65604 -5.57112,8.01882 -8.67225,17.87139 -2.95042,9.3737 -3.15925,9.7088 -7.01108,11.25 -5.26831,2.10796 -8.74555,1.99812 -12.67961,-0.40053 -2.8432,-1.73353 -3.25192,-2.51537 -3.26531,-6.24626 -0.008,-2.34559 -0.4313,-4.92237 -0.93973,-5.72619 -0.75531,-1.19414 -1.34702,-0.91975 -3.23469,1.5 -7.96362,10.20838 -13.86485,14.39279 -20.36393,14.43953 -6.72622,0.0484 -18.44634,-8.6212 -18.44634,-13.64507 0,-0.66153 -0.46752,-2.43244 -1.03894,-3.93537 -1.033,-2.71702 -1.0619,-2.69314 -5.06495,4.1849 -6.60034,11.34068 -13.67307,17.45752 -20.11399,17.39554 C 291.02695,152.46596 288.2,151.6227 286,150.60414 Z m 185.33859,-12.62177 c 7.2304,-6.08398 11.65011,-18.47931 10.9432,-30.69078 -0.59459,-10.271178 -2.52407,-13.162528 -9.07163,-13.593899 -4.07532,-0.268493 -5.03805,0.103742 -8.60661,3.327723 -5.20912,4.706126 -8.14543,12.409536 -8.84816,23.213106 -0.41484,6.37774 -0.14658,9.25788 1.18772,12.75168 2.93817,7.69349 8.77825,9.71875 14.39548,4.99217 z m 136.07268,-8.61751 c 1.09405,-1.17432 2.20763,-3.31182 2.47462,-4.75 1.44111,-7.76265 1.59597,-12.55523 0.59198,-18.32052 C 608.32791,93.948361 602.42743,87.945162 596.64637,92.222057 592.10128,95.584561 591,99.052023 591,110 c 0,11.65413 0.57567,14.24804 4.0886,18.42293 3.26027,3.8746 9.16964,4.32631 12.32267,0.94193 z"
       id="path6009"
       transform="matrix(0.26458333,0,0,0.26458333,11.310622,66.081977)" /><path
       style="fill:#000000"
       d="m 530,76.971164 c -2.2,-0.792578 -4.10095,-1.447827 -4.22432,-1.456108 -0.12338,-0.0083 -0.90936,-1.339765 -1.74662,-2.958854 -4.09773,-7.924147 6.94278,-15.502514 22.47094,-15.424366 15.13203,0.07615 22.71104,8.02463 14.51409,15.221646 C 554.5501,78.028944 539.25663,80.305984 530,76.971164 Z"
       id="path6011"
       transform="matrix(0.26458333,0,0,0.26458333,11.310622,66.081977)" /><path
       style="fill:#000000"
       d="m 644.85443,145.85578 c -1.18007,-0.25713 -2.98007,-1.38866 -4,-2.51451 -1.6746,-1.84849 -1.88192,-4.29173 -2.13783,-25.19413 -0.26787,-21.878968 -0.17086,-23.328385 1.77066,-26.455282 2.08786,-3.362589 8.71409,-7.129131 12.61351,-7.169896 4.17609,-0.04366 8.39707,2.121263 9.02665,4.629722 0.33846,1.348508 -0.56425,8.236426 -2.00602,15.306486 -1.44177,7.07006 -2.6214,13.34677 -2.6214,13.94824 0,2.44751 2.08819,0.83686 4.09225,-3.15641 3.8955,-7.76217 9.89716,-14.84164 14.26245,-16.823806 4.83635,-2.196059 12.47755,-2.500553 15.07569,-0.60075 1.66306,1.216059 1.7201,2.013179 0.69113,9.659006 -1.49312,11.09478 -1.41688,19.22936 0.20096,21.4419 1.22908,1.68086 1.53774,1.69729 4.36996,0.23269 4.20947,-2.1768 11.04581,-10.0362 15.75433,-18.11197 4.25839,-7.30372 7.44556,-9.71125 10.02361,-7.57165 0.84129,0.69821 1.52962,2.12933 1.52962,3.18027 0,5.82096 -13.04395,23.67232 -22.24854,30.44835 -5.24447,3.86077 -6.59726,4.39396 -11.11147,4.37951 -10.65535,-0.0341 -16.51068,-6.44401 -17.41355,-19.06286 -0.31314,-4.37646 -0.92953,-6.92069 -1.67667,-6.92069 -1.78512,0 -4.93602,6.39371 -8.52054,17.28963 -2.29408,6.97339 -3.90127,10.23565 -5.5868,11.34005 -2.51076,1.64511 -8.52096,2.50333 -12.088,1.7261 z"
       id="path6013"
       transform="matrix(0.26458333,0,0,0.26458333,11.310622,66.081977)" /></g></svg>
