<?xml version="1.0" encoding="UTF-8" standalone="no"?>
<svg
   xmlns:dc="http://purl.org/dc/elements/1.1/"
   xmlns:cc="http://creativecommons.org/ns#"
   xmlns:rdf="http://www.w3.org/1999/02/22-rdf-syntax-ns#"
   xmlns:svg="http://www.w3.org/2000/svg"
   xmlns="http://www.w3.org/2000/svg"
   xmlns:sodipodi="http://sodipodi.sourceforge.net/DTD/sodipodi-0.dtd"
   xmlns:inkscape="http://www.inkscape.org/namespaces/inkscape"
   version="1.1"
   id="svg2"
   xml:space="preserve"
   width="682.85333"
   height="426.93332"
   viewBox="0 0 682.85333 426.93332"
   sodipodi:docname="unionpay.eps"><metadata
     id="metadata8"><rdf:RDF><cc:Work
         rdf:about=""><dc:format>image/svg+xml</dc:format><dc:type
           rdf:resource="http://purl.org/dc/dcmitype/StillImage" /></cc:Work></rdf:RDF></metadata><defs
     id="defs6" /><sodipodi:namedview
     pagecolor="#ffffff"
     bordercolor="#666666"
     borderopacity="1"
     objecttolerance="10"
     gridtolerance="10"
     guidetolerance="10"
     inkscape:pageopacity="0"
     inkscape:pageshadow="2"
     inkscape:window-width="640"
     inkscape:window-height="480"
     id="namedview4" /><g
     id="g10"
     inkscape:groupmode="layer"
     inkscape:label="ink_ext_XXXXXX"
     transform="matrix(1.3333333,0,0,-1.3333333,0,426.93333)"><g
       id="g12"
       transform="scale(0.1)"><path
         d="m 1003.51,3202 h 1278.01 c 177.99,0 289,-145 247.99,-324 l -595,-2554 C 1892.52,146 1713.51,0 1535.52,0 H 256.516 C 78.5156,0 -32.4805,146 8.51563,324 L 603.516,2878 c 43,179 221,324 399.994,324"
         style="fill:#e31936;fill-opacity:1;fill-rule:nonzero;stroke:none"
         id="path14" /><path
         d="m 2174.51,3202 h 1470.01 c 178,0 98,-145 56,-324 l -595,-2554 C 3063.51,146 3076.51,0 2898.51,0 h -1470 c -179,0 -289,146 -246.99,324 l 595,2554 c 41.99,179 220,324 397.99,324"
         style="fill:#23437c;fill-opacity:1;fill-rule:nonzero;stroke:none"
         id="path16" /><path
         d="m 3586.51,3202 h 1278.01 c 178.99,0 290,-145 248,-324 l -595,-2554 C 4475.52,146 4296.51,0 4118.51,0 H 2840.52 c -179.01,0 -290,146 -248,324 l 595,2554 c 40.99,179 220,324 398.99,324"
         style="fill:#2c7a85;fill-opacity:1;fill-rule:nonzero;stroke:none"
         id="path18" /><path
         d="m 3004.52,955 c -2,-7 -5,-11 -9,-14 -5,-3 -12.01,-4 -24.01,-4 h -33 l 2.01,57 h -138 l -6.01,-277 c 0,-20 2,-32 16.01,-41 15,-12 60,-13 120,-13 h 87 l 31,104 -75,-4 -25,-2 c -3,1 -7.01,3 -10,6 -3,3 -9.01,1 -8,21 l 0.99,71 79.01,3 c 43,0 60.99,14 77,27 15,13 20,27 25,47 l 13,63 h -109.01 z m -177,358 h 235 l -17,-56 c 0,0 -111,1 -129.01,-2 -78,-14 -123.99,-55 -123.99,-55 z m -47,-156 h 232.99 l -15,-46 c -2,-1 -7,2 -30.99,0 h -202 z M 2673.51,775 c -3.99,6 -0.99,15 5,36 l 62.01,207 h 222 c 32,0 55.99,1 70.99,2 16.01,2 34.01,8 53,18 20,11 30,23 39.01,36 10,13 25,42 37.99,87 l 78,261 -230,-1 c 0,0 -70.99,-10 -101.99,-22 -32,-13 -77,-49 -77,-49 l 20.99,72 h -142 L 2512.52,761 c -7,-26 -12,-44 -13.01,-55 0,-12 15,-24 25,-33 12.01,-9 30,-8 46.01,-9 17.99,-1 42.99,-2 77.99,-2 h 109.01 l 33.99,113 -98,-9 c -10,-1 -17,4 -20,9 z m -337.99,648 -42.01,-76 c -9,-17 -16.99,-27 -24,-32 -6,-4 -18.99,-6 -37.99,-6 h -22.01 l -28.99,-98 h 72.99 c 35,0 62.01,13 75,19 14.01,7 18.01,3 28.01,14 l 25,21 h 228 l 30,102 h -167 l 29,55 h -166 z m -19,-646 41,135 h 166.99 l 30,100 h -166.99 l 25,83 h 163 l 30,97 h -408 l -30,-97 h 93 l -25,-83 h -93 l -31,-102 h 92.99 l -53.99,-178 c -7.01,-24 2.99,-33 10,-44 7,-11 13.99,-18 30,-22 16,-4 27.99,-6 42.99,-6 h 188.01 l 32.99,111 -82.99,-11 c -15,0 -59,2 -55,17 z m 1466.99,342 h 174.01 l -25,-81 h -176.01 l -25.99,-88 h 154 l -117,-164 c -8,-12 -15,-16 -24.01,-20 -7.99,-4 -18.99,-9 -30.99,-9 h -43 l -29,-96 h 112 c 58,0 92,26 118,61 l 80,109 17,-111 c 3.99,-21 18.99,-33 28.99,-38 11.01,-6 23.01,-15 39.01,-17 17.99,-1 30,-1 39,-1 h 55 l 33,108 h -22 c -12.01,0 -34.01,2 -37.01,6 -3.99,5 -3.99,12 -5.99,23 l -17,111 h -71 l 31,37 h 175.99 l 27,88 h -162.99 l 25,81 h 162 l 30,100 h -483 z m -290,-319 h -120 l 35,116 h 120 z m 67.01,223 c 0,0 -38,-5 -63,-10 -24.01,-7 -70,-31 -70,-31 l 40.99,137 h 121.01 z m -2.01,189 c -23.99,-7 -68.99,-27 -68.99,-27 l 40,132 h 120 l -29,-96 c 0,-1 -37.01,-3 -62.01,-9 z m 123,-411 h -41.99 l 156,516 h 52 l 15.99,53 2.01,-59 c -2.01,-37 27,-69 102,-64 h 87 l 30,99 h -33.01 c -18.99,0 -28,5 -26.99,15 l -2,60 h -162 v 0 c -52.01,-1 -208,-5 -240,-13 -38,-10 -78,-39 -78,-39 l 15.99,53 h -150.99 l -31.01,-105 -158,-523 h -30.99 l -30,-99 h 300.99 l -10,-33 h 148 l 10,33 h 42 z m 1048.01,1264 -6.01,7 c -78.99,-16 -93.99,-19 -167,-28 l -5,-5 -0.99,-3 v 1 c -54.01,-125 -53,-98 -97.01,-197 0,4 0,7 0,12 l -10.99,214 -7,7 c -83,-16 -85,-19 -162.01,-28 l -5.99,-5 c -1.01,-3 -1.01,-5 -1.01,-8 v -1 c 10,-49 7,-38 17,-115 4.01,-38 10,-76 15,-114 8,-63 12.01,-94 21.01,-189 -52,-86 -64,-118 -114,-193 v -1 l -35,-58 c -4.01,-6 -8,-10 -13,-12 -6.01,-3 -13,-3 -23,-3 h -19 l -29.01,-96 99.01,-2 c 57.99,0 95,28 115,64 l 62,107 h -1.01 l 7,8 c 42.01,90 361.01,638 361.01,638 z m -879,-243 c 17,73 37,136 87.99,136 32.01,0 49.01,-30 46.01,-81 -3.01,-13 -6.01,-26 -9,-41 -5,-22 -11,-43 -16,-65 -5,-15 -12,-29 -19,-38 -13,-19 -44.01,-30 -62.01,-30 -5,0 -37,0 -37.99,46 -1,23 4,47 10,73 z m -169.01,4 c -13.99,-60 -30,-169 70,-207 32,-14 60,-18 89.01,-16 30.99,2 59,17 85,39 -2.01,-9 -5,-18 -7.01,-27 l 5,-6 c 72.01,3 94.01,3 172.01,2 l 7,5 c 10.99,67 22,131 50.99,259 14.01,61 29.01,122 43,182 l -1.99,7 c -80,-15 -102,-18 -179,-29 l -6,-5 c -1.01,-6 -2,-12 -2,-18 -12,19 -29.01,36 -56.01,46 -33.99,13 -115,-4 -183.99,-67 -49.01,-44 -73,-106 -86.01,-165 z m -328.99,198 53,229 2,12 0.99,9 21.01,-2 c 0,0 108.99,-9 111.99,-10 43.01,-17 61.01,-60 48.01,-116 -11.01,-51 -45,-94 -87,-115 -35,-18 -78,-19 -123,-19 h -29 z m -93,-409 c 5,23 33,160 33,160 0,0 23.99,101 25,104 0,0 8,10 15,15 h 10.99 c 105,0 223,0 315,68 63,47 106.01,116 125,200 5,21 9.01,45 9.01,69 0,32 -6.01,64 -25,89 -47,66 -141.01,67 -250,68 h -54.01 c -138.99,-2 -195,-1 -217.99,2 -2.01,-10 -6,-28 -6,-28 l -50,-231 c 0,0 -119,-490 -125,-514 125,0 175,0 195,-2 z m -553.01,3 6.01,6 c 8,43 8.99,53 27,140 8.99,41 28,132 36,165 17,8 32.99,15 49,15 36.99,0 31.99,-32 31,-45 -1,-22 -15,-92 -29.01,-153 l -8.99,-39 c -7,-29 -14.01,-57 -20,-86 l 3,-6 c 75,4 97,4 162,3 l 8,6 c 10.99,67 14,85 35.99,183 l 10,45 c 20,88 30,133 15,169 -16.99,41 -55,51 -90,51 -23,0 -65.99,-6 -103,-24 -12.99,-7 -27,-15 -40,-23 l 12.01,45 -6,8 c -80,-16 -99,-19 -173.01,-29 l -5.99,-4 c -9.01,-72 -16,-125 -48,-266 -12,-52 -25,-104 -37,-156 l 3,-7 c 74,3 97,3 162.99,2 z m -464.99,212 c 16.99,75 36.99,138 87.99,138 40,0 43.01,-47 25,-122 -2.99,-17 -17.99,-79 -36.99,-105 -14.01,-19 -30,-31 -48.01,-31 -5,0 -36.99,0 -37.99,47 0,23 5,47 10,73 z m 6,-222 c 73,0 149,20 205,80 44,49 64,121 70,151 23,99 5,145 -17,173 -33,43 -93,57 -154,57 -37.01,0 -125,-4 -193.01,-67 -49,-46 -71.99,-108 -85.99,-167 -14.01,-60 -30,-169 70,-210 31.99,-13 75.99,-17 105,-17 z m -219.01,496 c -35.99,21 -100,15 -142.99,-15 -43,-29 -48,-70 -11.01,-92 36.01,-21 100,-15 142.01,15 41.99,30 47.99,70 11.99,92 z m -0.99,-125 c -40,-8 -65,-13 -91,-16 -25,-4 -50,-8 -88.01,-13 l -2.99,-3 -3,-2 c -4.01,-29 -7,-54 -12,-83 -5,-30 -11.01,-64 -23,-114 -9.01,-38 -13.01,-51 -18.01,-64 -5,-13 -10,-26 -20,-63 l 2.01,-3 1.99,-3 c 36,2 60,3 84.01,3 24,1 49,0 88,0 l 2.99,3 4.01,3 c 5.99,33 5.99,42 10,59 3,18 9,42 24,106 6.99,30 14,61 21,92 6.99,31 15,61 21.99,92 l -1,4 z m -364.01,92 c -22.99,0 -65,-6 -102.99,-24 -14,-7 -27.01,-15 -41.01,-23 l 12.01,45 -7.01,8 c -80,-16 -97.99,-18 -172.99,-29 l -6,-4 c -9,-72 -16.01,-125 -48,-266 -12,-52 -25,-104 -38.01,-156 l 3.01,-7 c 75.99,4 99,4 165,3 l 5,6 c 8,43 9,53 28,140 8.99,41 27,132 36,165 16.99,8 32.99,15 47.99,15 37.01,0 33.01,-32 31.01,-45 -2.01,-22 -15,-92 -29,-153 l -9,-39 c -6,-29 -14.01,-57 -20,-86 l 3,-6 c 75,4 97.99,4 162,3 l 8,6 c 12,67 15,85 36,183 l 10,45 c 20,88 30,133 15,169 -14,41 -53.01,50 -88.01,50 z m -326.99,313 c -131,-1 -170,0 -183.01,3 -5,-23 -92.99,-432 -94,-432 -18.99,-83 -32.99,-142 -79.994,-180 -26.996,-22 -58,-33 -94,-33 -57.996,0 -92,29 -97.996,84 l -1.004,19 18,111 c 0,0 93.004,373 110,422 1,3 1,4 1,6 -181,-2 -212.996,0 -215,3 -1,-4 -6,-27 -6,-27 l -95,-420 -8,-36 -16,-117 c 0,-35 7.004,-63 20,-87 43,-76 167.004,-87 237.004,-87 90,0 174,19 231.99,54 99,59 125,150 148.01,231 l 10.99,42 c 0,0 96,387 112.01,438 0,3 1,4 1,6"
         style="fill:#ffffff;fill-opacity:1;fill-rule:nonzero;stroke:none"
         id="path20" /></g></g></svg>
